<svg xmlns="http://www.w3.org/2000/svg" width="200" height="200" viewBox="0 0 200 200">
<rect width="200" height="200" fill="#35495e"/>
<path d="M 145 174 L 145 176 L 156 176 L 156 174 Z M 132 173 L 132 176 L 133 176 L 134 177 L 139 177 L 139 170 L 136 170 L 135 171 L 134 171 Z M 154 154 L 154 156 L 156 156 L 156 154 Z M 51 131 L 51 133 L 53 133 L 53 131 Z M 72 118 L 72 120 L 73 120 L 74 121 L 74 123 L 75 123 L 76 124 L 76 126 L 77 126 L 78 127 L 78 129 L 79 129 L 80 130 L 80 132 L 81 132 L 82 133 L 82 135 L 84 137 L 84 138 L 85 139 L 86 139 L 87 140 L 87 142 L 89 144 L 91 144 L 91 142 L 89 140 L 88 140 L 87 139 L 87 137 L 85 135 L 85 134 L 84 133 L 83 133 L 82 132 L 82 130 L 81 130 L 80 129 L 80 127 L 79 127 L 78 126 L 78 124 L 77 124 L 76 123 L 76 121 L 75 121 L 74 120 L 74 118 Z M 176 104 L 176 110 L 178 110 L 178 104 Z M 145 49 L 145 52 L 147 52 L 147 49 Z M 38 23 L 34 48 L 25 50 L 8 74 L 13 100 L 29 111 L 36 125 L 31 170 L 39 177 L 51 174 L 46 162 L 52 135 L 45 158 L 35 158 L 41 128 L 33 108 L 42 105 L 52 126 L 62 130 L 95 174 L 117 173 L 107 170 L 112 159 L 104 162 L 94 146 L 97 157 L 86 159 L 47 103 L 48 97 L 58 95 L 55 104 L 64 105 L 60 78 L 75 82 L 96 76 L 140 77 L 136 121 L 117 150 L 128 157 L 139 149 L 143 170 L 149 168 L 145 153 L 155 151 L 151 134 L 171 112 L 139 114 L 138 107 L 175 101 L 170 88 L 180 70 L 191 69 L 184 62 L 188 52 L 178 31 L 174 51 L 166 50 L 171 29 L 148 36 L 147 42 L 160 46 L 159 57 L 147 55 L 128 65 L 71 65 L 48 47 L 54 34 L 62 34 L 61 27 Z M 32 96 L 33 95 L 38 95 L 39 96 L 43 96 L 44 97 L 44 102 L 43 103 L 34 103 L 32 101 Z M 19 90 L 20 89 L 25 89 L 26 90 L 26 94 L 25 95 L 20 95 L 19 94 Z M 86 66 L 87 65 L 91 65 L 92 66 L 92 70 L 91 71 L 87 71 L 86 70 Z M 39 43 L 40 42 L 44 42 L 45 43 L 45 48 L 44 49 L 40 49 L 39 48 Z" fill="#ffffff" fill-rule="evenodd"/>
</svg>
